<svg version="1.1" id="Layer_1" xmlns="http://www.w3.org/2000/svg" xmlns:xlink="http://www.w3.org/1999/xlink" x="0px" y="0px"
	 width="100%" viewBox="0 0 810 668" enable-background="new 0 0 810 668" xml:space="preserve">
<path fill="#FEFEFE" opacity="1.000000" stroke="none" 
	d="
M457.000000,669.000000 
	C304.666656,669.000000 152.833328,669.000000 1.000000,669.000000 
	C1.000000,446.333344 1.000000,223.666672 1.000000,1.000000 
	C271.000000,1.000000 541.000000,1.000000 811.000000,1.000000 
	C811.000000,223.666672 811.000000,446.333344 811.000000,669.000000 
	C693.166687,669.000000 575.333313,669.000000 457.000000,669.000000 
M445.658478,208.028290 
	C445.932892,207.714523 446.207306,207.400757 447.004272,206.722244 
	C453.214081,201.863251 459.423889,197.004242 466.275421,192.054596 
	C471.549408,188.451965 476.823364,184.849335 482.766907,180.995972 
	C490.025177,176.749191 497.283478,172.502411 505.215912,168.271423 
	C509.186279,166.309479 513.156616,164.347534 517.875061,162.305954 
	C522.248962,160.474640 526.622803,158.643341 531.675598,156.908798 
	C532.408752,156.513916 533.141907,156.119034 534.442688,155.892883 
	C534.637451,155.860443 534.832153,155.828003 535.507812,155.796295 
	C535.826233,155.610184 535.953613,155.335464 535.993347,154.939468 
	C535.993347,154.939468 535.954468,154.838287 536.621704,154.743378 
	C537.913635,154.434875 539.205566,154.126373 541.253235,153.894196 
	C542.502136,154.261383 543.751099,154.628555 544.391724,155.340988 
	C541.602295,156.974213 538.760132,158.524689 536.034790,160.258591 
	C530.990845,163.467575 526.015137,166.783920 520.428467,170.088364 
	C519.957336,170.414597 519.486267,170.740829 518.443054,171.099686 
	C518.189392,171.361801 517.935669,171.623901 517.266113,172.030304 
	C517.266113,172.030304 517.020874,172.395828 516.422058,172.325348 
	C515.864197,172.847946 515.306396,173.370544 514.096741,174.105118 
	C508.625885,178.029297 503.154999,181.953476 497.040466,186.067902 
	C494.246643,188.124115 491.308533,190.012970 488.688995,192.271347 
	C483.211639,196.993515 477.902344,201.910568 471.995972,206.798553 
	C471.648621,207.162125 471.301239,207.525696 470.318176,208.033676 
	C469.467407,208.989426 468.616638,209.945175 467.140686,211.138672 
	C462.749115,215.732651 458.357544,220.326630 453.412170,225.306870 
	C445.301056,235.872574 437.189972,246.438278 428.809265,257.244232 
	C428.809265,257.244232 428.851990,257.602814 428.256073,257.932007 
	C427.486359,259.280762 426.716675,260.629547 425.407166,262.379761 
	C421.146515,269.894226 416.885864,277.408661 412.082214,285.880737 
	C420.941925,286.921204 428.458374,287.803955 436.886749,288.931030 
	C449.918701,288.832367 462.950653,288.733704 476.707855,288.791046 
	C478.112061,288.471100 479.516296,288.151184 481.616272,287.929047 
	C482.071930,287.833893 482.527588,287.738770 483.779449,287.831726 
	C485.979645,287.293518 488.179871,286.755341 491.228088,286.198914 
	C491.649200,285.842010 492.070282,285.485077 492.372742,285.681427 
	C493.259979,285.467682 494.147247,285.253967 495.829254,285.191498 
	C496.884491,285.017639 497.939728,284.843781 499.557953,284.735657 
	C500.036346,284.486267 500.514709,284.236908 501.729523,284.086884 
	C503.523376,283.469635 505.317230,282.852356 507.897400,282.316956 
	C513.264832,280.484558 518.632263,278.652191 524.734497,276.861725 
	C530.486938,274.185699 536.239319,271.509705 542.691772,268.793304 
	C549.187378,264.691650 555.683044,260.589966 562.869995,256.308319 
	C567.338745,252.252945 571.807434,248.197571 576.985168,244.212616 
	C579.695740,241.575790 582.406311,238.938965 585.798462,236.095428 
	C588.259216,233.235001 590.720032,230.374588 593.832031,227.244537 
	C597.637451,221.984818 601.442871,216.725113 605.883667,211.175079 
	C609.007629,205.990784 612.131592,200.806503 615.844788,195.296082 
	C616.217102,194.530716 616.589478,193.765350 617.170959,192.708054 
	C617.170959,192.708054 617.178894,192.348984 617.778687,191.966919 
	C620.870911,185.311478 623.963074,178.656052 627.400269,171.371567 
	C628.918945,168.239517 630.437561,165.107452 632.517151,161.490326 
	C634.473755,155.483810 636.430359,149.477280 639.012085,143.087463 
	C639.694519,141.269882 640.537598,139.494690 641.030640,137.627121 
	C642.843262,130.761124 644.539734,123.864471 646.707458,116.439835 
	C648.784424,106.271652 650.986755,96.126694 652.877075,85.923927 
	C653.639832,81.806839 653.720093,77.563293 654.171570,72.728615 
	C651.916321,73.226189 650.662354,73.505829 649.407166,73.779373 
	C628.731384,78.285072 608.066101,82.840233 587.373474,87.267296 
	C580.330383,88.774117 573.218140,89.957962 565.412170,91.173218 
	C564.946533,91.308136 564.480835,91.443047 563.397949,91.294113 
	C562.612915,91.563202 561.827942,91.832291 560.211243,92.020248 
	C557.145020,92.590851 554.078735,93.161461 550.516418,93.435669 
	C550.015930,93.634987 549.515442,93.834312 548.258545,93.939217 
	C547.508606,94.048615 546.758667,94.158020 545.345581,94.117973 
	C544.588074,94.466660 543.830566,94.815346 542.291138,95.067192 
	C541.531799,95.233131 540.772400,95.399078 539.396545,95.284851 
	C538.613708,95.557472 537.830872,95.830086 536.237061,96.066780 
	C531.806580,97.009415 527.376160,97.952049 522.147400,98.875320 
	C517.766357,100.034172 513.385315,101.193016 508.298706,102.238083 
	C506.666504,103.082443 505.034271,103.926804 502.647186,104.640450 
	C499.860870,105.619858 497.074524,106.599266 493.582642,107.509644 
	C488.054474,109.712845 482.526337,111.916046 476.277832,114.103333 
	C470.119781,117.712341 463.961731,121.321358 457.153229,125.139374 
	C452.121643,129.098236 447.090057,133.057083 441.426056,137.250244 
	C438.935638,139.788086 436.445190,142.325912 433.295654,145.094421 
	C431.576813,147.078232 429.657410,148.923950 428.178253,151.072754 
	C424.343781,156.643127 420.703186,162.346939 416.659363,168.467010 
	C416.385559,169.173645 416.111786,169.880295 415.227875,170.884674 
	C414.568909,172.260437 413.909943,173.636215 412.903290,175.568527 
	C412.552948,176.590561 412.202637,177.612595 411.235626,178.997421 
	C410.745026,180.301620 410.254425,181.605804 409.262268,183.429169 
	C406.974976,191.286911 404.687714,199.144653 402.105286,207.638824 
	C402.091248,208.100555 402.077179,208.562286 401.593109,209.470947 
	C401.492767,210.317352 401.392426,211.163757 401.053131,212.839767 
	C400.855591,214.838196 400.658081,216.836609 399.957123,219.336334 
	C397.831329,231.998444 397.603088,244.662567 399.060150,258.791931 
	C400.758667,256.813324 401.383881,256.109375 401.982788,255.383698 
	C409.306000,246.510056 416.551361,237.570648 423.980377,228.786545 
	C427.160339,225.026505 430.720734,221.588181 434.672089,217.683426 
	C436.118622,216.320679 437.565155,214.957947 439.561218,213.633255 
	C439.996460,213.076065 440.431671,212.518860 441.429718,211.877792 
	C441.614014,211.566376 441.798279,211.254944 442.601562,210.788635 
	C443.455780,209.891830 444.310028,208.995026 445.069489,208.046112 
	C445.069489,208.046112 445.037018,208.149292 445.658478,208.028290 
M244.267487,298.973724 
	C244.349030,308.328461 244.430588,317.683197 244.253479,327.933929 
	C244.210037,336.263336 243.821976,344.612579 244.299179,352.912048 
	C244.480515,356.066071 245.941895,359.735382 248.033676,362.092834 
	C259.603607,375.132233 271.624420,387.769897 283.346741,400.676056 
	C302.444427,421.702393 321.474152,442.791046 340.414886,463.958649 
	C343.070892,466.926880 345.822479,468.124512 349.872070,468.108765 
	C400.026825,467.913544 450.182617,467.828247 500.337189,467.995209 
	C504.993042,468.010681 507.773590,466.210876 510.381958,462.964478 
	C521.091248,449.635559 531.869446,436.361969 542.572693,423.028198 
	C544.765564,420.296295 546.744873,417.392914 549.425415,413.749268 
	C546.291748,413.749268 544.475281,413.748993 542.658875,413.749298 
	C486.171600,413.758148 429.684204,413.800629 373.197296,413.666382 
	C370.655914,413.660339 367.765289,412.549011 365.672699,411.059692 
	C363.315948,409.382477 361.714722,406.661285 359.724640,404.448334 
	C348.182892,391.614197 336.584900,378.830383 325.082275,365.961334 
	C316.247467,356.076996 307.525177,346.092072 298.890106,335.194580 
	C298.889465,314.037506 298.908661,292.880371 298.847748,271.723480 
	C298.843231,270.153320 298.263306,268.584808 298.016479,266.078430 
	C297.941376,259.391113 297.866241,252.703812 297.950836,245.089508 
	C297.904419,236.065277 297.858002,227.041031 297.948029,217.086517 
	C297.948029,185.559464 297.948029,154.032410 297.948029,121.737976 
	C307.005859,125.266724 314.994049,128.378754 322.982239,131.490799 
	C321.559662,126.939774 319.637054,123.499474 317.503693,120.195251 
	C305.830841,102.115898 294.126953,84.056458 282.386780,66.020737 
	C278.856567,60.597443 275.126526,55.304287 271.589417,49.885319 
	C270.259430,47.847710 268.933014,47.268364 267.453735,49.494560 
	C264.802734,53.484150 262.310425,57.578823 259.727203,61.613827 
	C247.664856,80.455040 235.573288,99.277603 223.542404,118.138870 
	C220.855484,122.351227 218.370987,126.692696 215.793304,130.974731 
	C216.069260,131.245316 216.345215,131.515884 216.621170,131.786469 
	C225.506516,128.161957 234.391861,124.537430 244.043121,120.600479 
	C244.043121,123.544930 244.043350,125.348381 244.043091,127.151833 
	C244.039444,152.636719 244.016098,178.121658 244.067947,203.606430 
	C244.072266,205.727478 244.584198,207.847504 244.578186,210.749680 
	C244.503937,220.512268 244.429672,230.274872 244.157928,240.952209 
	C244.251633,248.325912 244.345322,255.699631 244.201752,263.972046 
	C244.299133,272.668671 244.396530,281.365265 244.225998,290.912567 
	C244.329346,293.304230 244.432693,295.695892 244.267487,298.973724 
M370.118591,273.500000 
	C370.101807,250.511032 370.197571,227.520721 369.923096,204.534836 
	C369.889496,201.720871 368.575775,198.268112 366.661804,196.234894 
	C352.341187,181.022125 337.739044,166.073807 323.170288,151.095947 
	C321.298798,149.171921 319.112183,147.554413 316.030518,144.897324 
	C316.030518,148.272324 316.030945,150.201401 316.030487,152.130478 
	C316.017303,206.438217 316.179932,260.747223 315.790436,315.052277 
	C315.735504,322.707001 318.084106,328.089569 323.069977,333.513245 
	C341.043365,353.064758 358.607147,372.992432 376.485809,392.632202 
	C377.830292,394.109131 380.434784,395.187439 382.455902,395.191254 
	C441.927612,395.303528 501.399719,395.278564 560.871399,395.128754 
	C562.737244,395.124054 565.205994,394.067169 566.368652,392.656097 
	C577.541321,379.097168 588.523315,365.380310 599.484192,351.648315 
	C601.758728,348.798828 603.721069,345.700165 606.418518,341.878723 
	C602.867249,341.878723 600.715210,341.878937 598.563171,341.878723 
	C535.926025,341.872772 473.288818,341.848267 410.651733,341.914703 
	C407.468323,341.918091 405.146820,341.303619 402.920197,338.698639 
	C393.001678,327.094452 382.709991,315.808380 372.841461,304.162994 
	C371.200012,302.226044 370.358734,299.107666 370.235077,296.483948 
	C369.890350,289.170380 370.117004,281.829865 370.118591,273.500000 
M683.348022,598.069946 
	C680.187683,585.321533 673.075745,575.391357 660.605347,570.979370 
	C645.763611,565.728455 631.495605,567.254883 618.598633,580.043274 
	C618.598633,564.791199 618.598633,550.988342 618.598633,537.078369 
	C612.750977,537.078369 607.673218,537.078369 602.124817,537.078369 
	C602.124817,539.022827 602.126404,540.652710 602.124634,542.282593 
	C602.109741,555.942505 602.103088,569.602417 602.076843,583.262329 
	C602.038147,603.417175 602.057861,623.572693 601.867554,643.726196 
	C601.835632,647.104919 602.983887,648.286499 606.187134,647.934937 
	C607.339233,647.808533 608.517090,647.918274 609.683167,647.917114 
	C617.191101,647.909546 617.182251,647.907776 618.429871,640.449585 
	C618.499146,640.035461 618.910889,639.678589 619.410522,638.919128 
	C620.265747,639.640869 620.981140,640.211426 621.660095,640.822388 
	C633.409790,651.396240 652.501526,652.966980 665.773865,644.446106 
	C681.012634,634.662598 687.686829,617.505798 683.348022,598.069946 
M127.872009,635.539001 
	C110.385231,635.528503 92.894211,635.299866 75.414230,635.639404 
	C70.115356,635.742310 68.785767,633.655396 68.867271,629.012878 
	C69.001709,621.354492 69.138626,613.678772 68.763519,606.035400 
	C68.538673,601.453735 70.263039,600.464966 74.504974,600.523743 
	C88.824417,600.722046 103.151611,600.370117 117.470688,600.580139 
	C122.998001,600.661255 122.458260,597.338623 122.631966,593.698853 
	C122.817253,589.816284 121.917358,588.000854 117.469330,588.079285 
	C103.317612,588.328918 89.155136,587.985229 75.004265,588.257507 
	C70.496643,588.344238 69.250771,586.859924 69.437561,582.548340 
	C69.747231,575.400635 69.802299,568.213135 69.404495,561.073669 
	C69.147545,556.462158 70.875320,555.531860 75.114685,555.588379 
	C90.933311,555.799377 106.756836,555.642883 122.578522,555.624878 
	C124.348007,555.622864 126.117485,555.624573 127.865677,555.624573 
	C127.865677,550.843323 127.865677,546.790344 127.865677,542.631104 
	C126.773552,542.451782 126.137985,542.256592 125.502274,542.256165 
	C103.352081,542.239685 81.201431,542.312622 59.052109,542.172791 
	C55.250187,542.148804 55.220036,544.176636 55.222931,546.910583 
	C55.257000,579.053589 55.303970,611.196777 55.160439,643.339172 
	C55.143253,647.187561 56.423958,648.084656 60.057480,648.053406 
	C81.540329,647.868591 103.025467,647.956238 124.508713,647.798523 
	C126.559067,647.783508 130.396835,646.575745 130.364868,646.150024 
	C130.100555,642.630066 132.788498,638.495544 127.872009,635.539001 
M338.459778,567.932190 
	C325.167053,591.270142 330.198517,626.261658 356.587250,642.087646 
	C380.179016,656.236267 415.182892,651.160889 427.869019,631.343811 
	C424.499695,628.207214 421.116302,625.057556 417.443420,621.638428 
	C409.487488,630.844849 399.580322,635.662048 387.630737,635.750549 
	C375.709198,635.838806 365.635712,631.477722 357.470612,622.686829 
	C344.180573,608.378235 344.418427,582.126038 357.920135,567.332458 
	C370.317566,553.748779 397.242065,548.638184 417.870209,568.208740 
	C421.015106,564.680420 424.149200,561.164307 427.225342,557.713135 
	C407.418518,533.809021 358.198517,533.969849 338.459778,567.932190 
M142.682480,623.646179 
	C143.097214,624.554749 143.581284,625.438538 143.916534,626.375488 
	C151.997162,648.959961 185.781586,659.266174 204.619812,638.060181 
	C205.169540,637.441345 205.948914,637.026428 207.295609,636.004822 
	C207.295609,640.293335 207.295609,643.728760 207.295609,647.799866 
	C209.820618,647.799866 211.966797,647.562439 214.041260,647.847351 
	C218.977875,648.525146 220.059601,646.388855 220.027878,641.710693 
	C219.808823,609.418640 219.924164,577.124573 219.832779,544.831360 
	C219.803986,534.660400 221.486298,536.246826 210.769592,535.910461 
	C207.142990,535.796631 206.265350,537.169800 206.324234,540.552979 
	C206.503830,550.870361 206.388000,561.192871 206.387222,571.513428 
	C206.387024,574.220520 206.387192,576.927673 206.387192,580.601990 
	C204.530914,579.108521 203.617401,578.453979 202.795013,577.700073 
	C186.939865,563.165649 159.919083,566.432068 147.968460,584.157471 
	C139.819794,596.243713 139.465088,609.287415 142.682480,623.646179 
M451.266571,644.245667 
	C464.360901,653.116943 479.356659,651.779785 495.739899,640.280029 
	C497.868317,648.511780 497.868317,648.511841 507.347595,648.050476 
	C507.680176,648.034302 508.015900,647.974609 508.344482,648.002563 
	C511.051880,648.231995 511.722717,646.794067 511.686615,644.350098 
	C511.435791,627.373169 511.575104,610.384033 510.965759,593.421143 
	C510.525726,581.170532 502.328918,571.996521 490.203491,570.109802 
	C483.204071,569.020691 475.937775,568.812622 468.861725,569.276917 
	C461.287415,569.773987 454.002808,572.099854 447.550568,576.331055 
	C449.173523,580.570740 450.626495,584.366455 452.131470,588.297913 
	C462.218964,584.269348 471.939819,581.810791 482.289032,583.179688 
	C490.666138,584.287720 494.457001,588.352844 495.436859,596.696960 
	C495.888977,600.547180 494.718140,601.567139 490.898590,601.507568 
	C481.780518,601.365112 472.632050,601.372437 463.537811,601.964111 
	C452.839508,602.660156 444.957611,608.920898 442.575592,618.869263 
	C440.251251,628.576965 442.256989,637.367615 451.266571,644.245667 
M729.573486,647.809875 
	C746.761230,652.840393 762.434814,650.140320 775.009766,637.055298 
	C790.184204,621.265320 789.589966,596.292236 774.464661,580.082581 
	C761.356873,566.035095 733.420532,564.096313 717.976074,576.252014 
	C706.134827,585.571777 701.092041,597.822754 701.809814,612.867615 
	C702.548828,628.358154 713.941467,643.335754 729.573486,647.809875 
M241.929199,598.500000 
	C241.945618,604.994995 241.797440,611.495728 242.022354,617.983521 
	C242.273270,625.220398 243.738708,632.341614 248.168549,638.173340 
	C258.585999,651.887329 281.481934,653.062622 293.856903,640.824280 
	C294.843567,639.848572 295.864838,638.907837 296.871704,637.949158 
	C298.033386,641.501221 298.176880,646.067627 300.247681,647.245422 
	C302.942474,648.778137 307.167633,647.620117 310.682983,647.620117 
	C310.682983,621.400085 310.682983,595.994934 310.682983,570.103149 
	C308.553497,570.103149 306.759399,570.103027 304.965332,570.103149 
	C297.402649,570.103821 297.403107,570.103821 297.370636,577.558777 
	C297.314056,590.548096 297.604828,603.550903 297.099945,616.522766 
	C296.616119,628.952881 288.317810,636.948303 276.194122,637.729614 
	C265.368011,638.427185 258.158203,632.067139 255.734756,619.542725 
	C255.327271,617.436829 255.209869,615.247742 255.201920,613.096191 
	C255.155746,600.605713 255.194550,588.114990 255.170410,575.624390 
	C255.167023,573.876404 254.975479,572.128784 254.871582,570.390137 
	C250.347076,570.390137 246.419800,570.390137 241.928635,570.390137 
	C241.928635,579.606750 241.928635,588.553345 241.929199,598.500000 
M538.501099,588.500977 
	C538.501099,608.244934 538.501099,627.988953 538.501099,647.977051 
	C542.939758,647.977051 546.592590,647.830383 550.227722,648.020752 
	C553.485046,648.191345 554.642334,646.953064 554.547607,643.677429 
	C554.316833,635.689026 554.283691,627.691895 554.340759,619.699463 
	C554.372803,615.211548 554.568665,610.709534 554.994263,606.242737 
	C556.058044,595.079712 564.199829,586.790405 575.307617,584.787964 
	C577.526306,584.388000 580.924011,582.841553 581.272217,581.268799 
	C582.137573,577.359985 581.556885,573.131104 581.556885,569.117737 
	C571.265808,567.953735 567.000183,570.086121 554.022583,582.949341 
	C554.022583,578.154358 554.022583,574.179871 554.022583,570.271484 
	C548.407104,570.271484 543.669800,570.271484 538.502380,570.271484 
	C538.502380,576.215210 538.502380,581.858582 538.501099,588.500977 
z"/>
<path fill="#9EBD64" opacity="1.000000" stroke="none" 
	d="
M370.118347,274.000000 
	C370.117004,281.829865 369.890350,289.170380 370.235077,296.483948 
	C370.358734,299.107666 371.200012,302.226044 372.841461,304.162994 
	C382.709991,315.808380 393.001678,327.094452 402.920197,338.698639 
	C405.146820,341.303619 407.468323,341.918091 410.651733,341.914703 
	C473.288818,341.848267 535.926025,341.872772 598.563171,341.878723 
	C600.715210,341.878937 602.867249,341.878723 606.418518,341.878723 
	C603.721069,345.700165 601.758728,348.798828 599.484192,351.648315 
	C588.523315,365.380310 577.541321,379.097168 566.368652,392.656097 
	C565.205994,394.067169 562.737244,395.124054 560.871399,395.128754 
	C501.399719,395.278564 441.927612,395.303528 382.455902,395.191254 
	C380.434784,395.187439 377.830292,394.109131 376.485809,392.632202 
	C358.607147,372.992432 341.043365,353.064758 323.069977,333.513245 
	C318.084106,328.089569 315.735504,322.707001 315.790436,315.052277 
	C316.179932,260.747223 316.017303,206.438217 316.030487,152.130478 
	C316.030945,150.201401 316.030518,148.272324 316.030518,144.897324 
	C319.112183,147.554413 321.298798,149.171921 323.170288,151.095947 
	C337.739044,166.073807 352.341187,181.022125 366.661804,196.234894 
	C368.575775,198.268112 369.889496,201.720871 369.923096,204.534836 
	C370.197571,227.520721 370.101807,250.511032 370.118347,274.000000 
z"/>
<path fill="#6DA8D7" opacity="1.000000" stroke="none" 
	d="
M298.752869,336.151886 
	C307.525177,346.092072 316.247467,356.076996 325.082275,365.961334 
	C336.584900,378.830383 348.182892,391.614197 359.724640,404.448334 
	C361.714722,406.661285 363.315948,409.382477 365.672699,411.059692 
	C367.765289,412.549011 370.655914,413.660339 373.197296,413.666382 
	C429.684204,413.800629 486.171600,413.758148 542.658875,413.749298 
	C544.475281,413.748993 546.291748,413.749268 549.425415,413.749268 
	C546.744873,417.392914 544.765564,420.296295 542.572693,423.028198 
	C531.869446,436.361969 521.091248,449.635559 510.381958,462.964478 
	C507.773590,466.210876 504.993042,468.010681 500.337189,467.995209 
	C450.182617,467.828247 400.026825,467.913544 349.872070,468.108765 
	C345.822479,468.124512 343.070892,466.926880 340.414886,463.958649 
	C321.474152,442.791046 302.444427,421.702393 283.346741,400.676056 
	C271.624420,387.769897 259.603607,375.132233 248.033676,362.092834 
	C245.941895,359.735382 244.480515,356.066071 244.299179,352.912048 
	C243.821976,344.612579 244.210037,336.263336 244.771210,327.473877 
	C253.859024,328.175812 262.418457,329.425446 271.002991,330.468292 
	C276.500397,331.136078 281.824219,331.637787 286.889191,334.645325 
	C289.574280,336.239716 293.607788,335.563232 297.319153,335.955872 
	C297.988129,336.050507 298.370483,336.101196 298.752869,336.151886 
z"/>
<path fill="#A5D4E6" opacity="1.000000" stroke="none" 
	d="
M244.860291,209.968002 
	C244.584198,207.847504 244.072266,205.727478 244.067947,203.606430 
	C244.016098,178.121658 244.039444,152.636719 244.043091,127.151833 
	C244.043350,125.348381 244.043121,123.544930 244.043121,120.600479 
	C234.391861,124.537430 225.506516,128.161957 216.621170,131.786469 
	C216.345215,131.515884 216.069260,131.245316 215.793304,130.974731 
	C218.370987,126.692696 220.855484,122.351227 223.542404,118.138870 
	C235.573288,99.277603 247.664856,80.455040 259.727203,61.613827 
	C262.310425,57.578823 264.802734,53.484150 267.453735,49.494560 
	C268.933014,47.268364 270.259430,47.847710 271.589417,49.885319 
	C275.126526,55.304287 278.856567,60.597443 282.386780,66.020737 
	C294.126953,84.056458 305.830841,102.115898 317.503693,120.195251 
	C319.637054,123.499474 321.559662,126.939774 322.982239,131.490799 
	C314.994049,128.378754 307.005859,125.266724 297.948029,121.737976 
	C297.948029,154.032410 297.948029,185.559464 297.491760,217.487259 
	C289.812164,217.258453 282.576538,216.742950 275.369324,215.964249 
	C269.317047,215.310333 262.702972,215.609589 257.450928,213.129349 
	C253.191620,211.117905 249.362946,209.870178 244.860291,209.968002 
z"/>
<path fill="#3B5E38" opacity="1.000000" stroke="none" 
	d="
M683.422241,598.478699 
	C687.686829,617.505798 681.012634,634.662598 665.773865,644.446106 
	C652.501526,652.966980 633.409790,651.396240 621.660095,640.822388 
	C620.981140,640.211426 620.265747,639.640869 619.410522,638.919128 
	C618.910889,639.678589 618.499146,640.035461 618.429871,640.449585 
	C617.182251,647.907776 617.191101,647.909546 609.683167,647.917114 
	C608.517090,647.918274 607.339233,647.808533 606.187134,647.934937 
	C602.983887,648.286499 601.835632,647.104919 601.867554,643.726196 
	C602.057861,623.572693 602.038147,603.417175 602.076843,583.262329 
	C602.103088,569.602417 602.109741,555.942505 602.124634,542.282593 
	C602.126404,540.652710 602.124817,539.022827 602.124817,537.078369 
	C607.673218,537.078369 612.750977,537.078369 618.598633,537.078369 
	C618.598633,550.988342 618.598633,564.791199 618.598633,580.043274 
	C631.495605,567.254883 645.763611,565.728455 660.605347,570.979370 
	C673.075745,575.391357 680.187683,585.321533 683.422241,598.478699 
M622.771240,592.417847 
	C618.925354,598.217529 617.886536,604.672729 618.328552,611.471191 
	C619.218018,625.150269 627.528137,634.134155 640.845398,635.819214 
	C652.617188,637.308777 662.810364,630.416687 667.034912,618.111328 
	C670.996582,606.571716 666.035339,591.665405 656.333984,585.959656 
	C644.841064,579.200256 631.911926,581.508118 622.771240,592.417847 
z"/>
<path fill="#898A8A" opacity="1.000000" stroke="none" 
	d="
M128.302185,635.575867 
	C132.788498,638.495544 130.100555,642.630066 130.364868,646.150024 
	C130.396835,646.575745 126.559067,647.783508 124.508713,647.798523 
	C103.025467,647.956238 81.540329,647.868591 60.057480,648.053406 
	C56.423958,648.084656 55.143253,647.187561 55.160439,643.339172 
	C55.303970,611.196777 55.257000,579.053589 55.222931,546.910583 
	C55.220036,544.176636 55.250187,542.148804 59.052109,542.172791 
	C81.201431,542.312622 103.352081,542.239685 125.502274,542.256165 
	C126.137985,542.256592 126.773552,542.451782 127.865677,542.631104 
	C127.865677,546.790344 127.865677,550.843323 127.865677,555.624573 
	C126.117485,555.624573 124.348007,555.622864 122.578522,555.624878 
	C106.756836,555.642883 90.933311,555.799377 75.114685,555.588379 
	C70.875320,555.531860 69.147545,556.462158 69.404495,561.073669 
	C69.802299,568.213135 69.747231,575.400635 69.437561,582.548340 
	C69.250771,586.859924 70.496643,588.344238 75.004265,588.257507 
	C89.155136,587.985229 103.317612,588.328918 117.469330,588.079285 
	C121.917358,588.000854 122.817253,589.816284 122.631966,593.698853 
	C122.458260,597.338623 122.998001,600.661255 117.470688,600.580139 
	C103.151611,600.370117 88.824417,600.722046 74.504974,600.523743 
	C70.263039,600.464966 68.538673,601.453735 68.763519,606.035400 
	C69.138626,613.678772 69.001709,621.354492 68.867271,629.012878 
	C68.785767,633.655396 70.115356,635.742310 75.414230,635.639404 
	C92.894211,635.299866 110.385231,635.528503 128.302185,635.575867 
z"/>
<path fill="#3C5F3B" opacity="1.000000" stroke="none" 
	d="
M338.624054,567.602478 
	C358.198517,533.969849 407.418518,533.809021 427.225342,557.713135 
	C424.149200,561.164307 421.015106,564.680420 417.870209,568.208740 
	C397.242065,548.638184 370.317566,553.748779 357.920135,567.332458 
	C344.418427,582.126038 344.180573,608.378235 357.470612,622.686829 
	C365.635712,631.477722 375.709198,635.838806 387.630737,635.750549 
	C399.580322,635.662048 409.487488,630.844849 417.443420,621.638428 
	C421.116302,625.057556 424.499695,628.207214 427.869019,631.343811 
	C415.182892,651.160889 380.179016,656.236267 356.587250,642.087646 
	C330.198517,626.261658 325.167053,591.270142 338.624054,567.602478 
z"/>
<path fill="#878787" opacity="1.000000" stroke="none" 
	d="
M142.550598,623.264526 
	C139.465088,609.287415 139.819794,596.243713 147.968460,584.157471 
	C159.919083,566.432068 186.939865,563.165649 202.795013,577.700073 
	C203.617401,578.453979 204.530914,579.108521 206.387192,580.601990 
	C206.387192,576.927673 206.387024,574.220520 206.387222,571.513428 
	C206.388000,561.192871 206.503830,550.870361 206.324234,540.552979 
	C206.265350,537.169800 207.142990,535.796631 210.769592,535.910461 
	C221.486298,536.246826 219.803986,534.660400 219.832779,544.831360 
	C219.924164,577.124573 219.808823,609.418640 220.027878,641.710693 
	C220.059601,646.388855 218.977875,648.525146 214.041260,647.847351 
	C211.966797,647.562439 209.820618,647.799866 207.295609,647.799866 
	C207.295609,643.728760 207.295609,640.293335 207.295609,636.004822 
	C205.948914,637.026428 205.169540,637.441345 204.619812,638.060181 
	C185.781586,659.266174 151.997162,648.959961 143.916534,626.375488 
	C143.581284,625.438538 143.097214,624.554749 142.550598,623.264526 
M162.601151,587.078125 
	C155.355118,595.033325 153.444687,604.442444 154.756485,614.864197 
	C156.963943,632.401733 176.379379,643.045959 192.356216,635.527710 
	C205.887131,629.160522 209.132828,612.743958 204.632034,597.781738 
	C203.249390,593.185364 199.648605,588.762146 195.987259,585.449036 
	C188.538315,578.708557 172.218719,578.510193 162.601151,587.078125 
z"/>
<path fill="#3B5E39" opacity="1.000000" stroke="none" 
	d="
M450.975037,644.034668 
	C442.256989,637.367615 440.251251,628.576965 442.575592,618.869263 
	C444.957611,608.920898 452.839508,602.660156 463.537811,601.964111 
	C472.632050,601.372437 481.780518,601.365112 490.898590,601.507568 
	C494.718140,601.567139 495.888977,600.547180 495.436859,596.696960 
	C494.457001,588.352844 490.666138,584.287720 482.289032,583.179688 
	C471.939819,581.810791 462.218964,584.269348 452.131470,588.297913 
	C450.626495,584.366455 449.173523,580.570740 447.550568,576.331055 
	C454.002808,572.099854 461.287415,569.773987 468.861725,569.276917 
	C475.937775,568.812622 483.204071,569.020691 490.203491,570.109802 
	C502.328918,571.996521 510.525726,581.170532 510.965759,593.421143 
	C511.575104,610.384033 511.435791,627.373169 511.686615,644.350098 
	C511.722717,646.794067 511.051880,648.231995 508.344482,648.002563 
	C508.015900,647.974609 507.680176,648.034302 507.347595,648.050476 
	C497.868317,648.511841 497.868317,648.511780 495.739899,640.280029 
	C479.356659,651.779785 464.360901,653.116943 450.975037,644.034668 
M464.080902,614.197021 
	C455.884888,618.863831 456.377289,629.135254 462.209869,633.926086 
	C468.193115,638.840698 480.737305,638.789612 488.622894,633.769836 
	C494.606445,629.960876 497.405792,621.396301 495.240112,612.506042 
	C491.604706,612.506042 487.810669,612.333435 484.038116,612.544678 
	C477.635864,612.903198 471.247162,613.503784 464.080902,614.197021 
z"/>
<path fill="#3B5E39" opacity="1.000000" stroke="none" 
	d="
M729.209717,647.646973 
	C713.941467,643.335754 702.548828,628.358154 701.809814,612.867615 
	C701.092041,597.822754 706.134827,585.571777 717.976074,576.252014 
	C733.420532,564.096313 761.356873,566.035095 774.464661,580.082581 
	C789.589966,596.292236 790.184204,621.265320 775.009766,637.055298 
	C762.434814,650.140320 746.761230,652.840393 729.209717,647.646973 
M769.837158,609.485962 
	C769.150879,605.918091 768.877319,602.207520 767.701965,598.808838 
	C763.966003,588.006165 754.143738,581.714600 742.223999,582.076111 
	C731.899719,582.389160 722.297729,590.116943 719.342773,600.491028 
	C715.945984,612.416443 719.796875,624.940063 728.247192,630.998962 
	C743.840393,642.179321 768.115967,634.799011 769.837158,609.485962 
z"/>
<path fill="#AEC867" opacity="1.000000" stroke="none" 
	d="
M646.279907,116.979347 
	C644.539734,123.864471 642.843262,130.761124 641.030640,137.627121 
	C640.537598,139.494690 639.694519,141.269882 638.443604,142.944275 
	C636.788513,142.624283 635.510620,141.985123 634.645203,142.343124 
	C627.081726,145.471756 620.526489,142.153534 613.908447,139.286621 
	C611.795349,138.371231 609.887939,136.955231 607.745544,136.137329 
	C593.892578,130.848541 579.974487,125.729782 566.136719,120.402245 
	C561.713074,118.699165 557.441040,116.589317 553.148254,114.562637 
	C547.173462,111.741867 541.189331,108.931618 535.314453,105.911896 
	C531.102173,103.746704 527.062439,101.245804 522.945679,98.894684 
	C527.376160,97.952049 531.806580,97.009415 536.822144,96.312569 
	C538.275879,96.227242 539.144470,95.896126 540.013062,95.565018 
	C540.772400,95.399078 541.531799,95.233131 542.876953,95.339676 
	C544.311401,95.163910 545.160095,94.715660 546.008728,94.267418 
	C546.758667,94.158020 547.508606,94.048615 548.770020,94.192192 
	C549.858521,94.207474 550.435486,93.969772 551.012512,93.732071 
	C554.078735,93.161461 557.145020,92.590851 560.806641,92.289192 
	C562.273071,92.231407 563.144165,91.904678 564.015198,91.577957 
	C564.480835,91.443047 564.946533,91.308136 566.077454,91.464378 
	C571.837585,91.408386 575.957703,92.976013 580.080444,96.332031 
	C583.178589,98.853973 587.783325,99.529716 591.725220,101.006325 
	C592.483826,101.290489 593.315063,101.395355 594.051758,101.721008 
	C604.034790,106.134232 613.888855,110.868690 624.022339,114.901947 
	C631.100830,117.719292 638.604858,119.055923 646.279907,116.979347 
z"/>
<path fill="#848484" opacity="1.000000" stroke="none" 
	d="
M241.928925,598.000000 
	C241.928635,588.553345 241.928635,579.606750 241.928635,570.390137 
	C246.419800,570.390137 250.347076,570.390137 254.871582,570.390137 
	C254.975479,572.128784 255.167023,573.876404 255.170410,575.624390 
	C255.194550,588.114990 255.155746,600.605713 255.201920,613.096191 
	C255.209869,615.247742 255.327271,617.436829 255.734756,619.542725 
	C258.158203,632.067139 265.368011,638.427185 276.194122,637.729614 
	C288.317810,636.948303 296.616119,628.952881 297.099945,616.522766 
	C297.604828,603.550903 297.314056,590.548096 297.370636,577.558777 
	C297.403107,570.103821 297.402649,570.103821 304.965332,570.103149 
	C306.759399,570.103027 308.553497,570.103149 310.682983,570.103149 
	C310.682983,595.994934 310.682983,621.400085 310.682983,647.620117 
	C307.167633,647.620117 302.942474,648.778137 300.247681,647.245422 
	C298.176880,646.067627 298.033386,641.501221 296.871704,637.949158 
	C295.864838,638.907837 294.843567,639.848572 293.856903,640.824280 
	C281.481934,653.062622 258.585999,651.887329 248.168549,638.173340 
	C243.738708,632.341614 242.273270,625.220398 242.022354,617.983521 
	C241.797440,611.495728 241.945618,604.994995 241.928925,598.000000 
z"/>
<path fill="#97B761" opacity="1.000000" stroke="none" 
	d="
M457.803680,124.930359 
	C463.961731,121.321358 470.119781,117.712341 476.644714,114.489449 
	C478.348083,116.082634 479.488068,117.799500 481.056763,118.404129 
	C486.420624,120.471519 492.005707,121.962730 497.378296,124.009941 
	C511.099091,129.238205 524.853210,134.403000 538.394165,140.070633 
	C547.493652,143.879242 556.248474,148.512436 566.570923,145.188034 
	C566.765625,145.125336 567.100525,145.498138 567.426331,145.703186 
	C565.452393,149.288651 565.235474,151.675186 570.531433,152.222916 
	C574.053101,152.587158 577.535645,154.067383 580.858704,155.468140 
	C589.011841,158.904922 596.906677,163.012405 605.202148,166.036179 
	C612.271912,168.613205 619.755005,170.056046 627.055298,172.000610 
	C623.963074,178.656052 620.870911,185.311478 617.415161,191.742233 
	C616.414185,190.698898 615.944946,189.515411 615.108032,189.129837 
	C612.574036,187.962387 609.796143,187.311920 607.294617,186.088989 
	C597.159119,181.134125 587.255310,175.669800 576.946411,171.116943 
	C568.940674,167.581207 560.441223,165.171829 552.209412,162.131439 
	C550.690063,161.570282 549.400635,160.386505 547.738708,159.318939 
	C551.426270,156.819519 554.445923,154.834503 557.395386,152.750137 
	C559.123291,151.529007 559.378601,150.419952 556.892944,149.644836 
	C550.608887,147.710922 545.495239,150.551361 540.497498,153.817871 
	C539.205566,154.126373 537.913635,154.434875 536.286255,154.418243 
	C535.825989,153.617416 535.838623,152.838287 535.556335,152.710434 
	C528.551270,149.537979 521.626587,146.141769 514.451660,143.403778 
	C507.763824,140.851685 500.774414,139.101074 493.971954,136.834991 
	C487.136078,134.557739 480.396362,131.991501 473.559143,129.718460 
	C468.352203,127.987396 463.058685,126.516823 457.803680,124.930359 
z"/>
<path fill="#A5C264" opacity="1.000000" stroke="none" 
	d="
M522.546509,98.885002 
	C527.062439,101.245804 531.102173,103.746704 535.314453,105.911896 
	C541.189331,108.931618 547.173462,111.741867 553.148254,114.562637 
	C557.441040,116.589317 561.713074,118.699165 566.136719,120.402245 
	C579.974487,125.729782 593.892578,130.848541 607.745544,136.137329 
	C609.887939,136.955231 611.795349,138.371231 613.908447,139.286621 
	C620.526489,142.153534 627.081726,145.471756 634.645203,142.343124 
	C635.510620,141.985123 636.788513,142.624283 638.131104,143.135925 
	C636.430359,149.477280 634.473755,155.483810 631.934814,161.503876 
	C625.166504,159.284271 618.947754,157.137451 612.801636,154.799667 
	C600.784668,150.228775 588.785339,145.608932 576.830688,140.878067 
	C573.775757,139.669128 571.062927,137.399597 567.940613,136.589722 
	C551.441162,132.310013 535.658142,126.541557 520.694275,118.121689 
	C512.506958,113.514847 503.129181,111.023811 494.288208,107.578674 
	C497.074524,106.599266 499.860870,105.619858 503.422729,104.753273 
	C505.800262,104.028015 507.402252,103.189934 509.004242,102.351852 
	C513.385315,101.193016 517.766357,100.034172 522.546509,98.885002 
z"/>
<path fill="#BACF6D" opacity="1.000000" stroke="none" 
	d="
M646.493652,116.709595 
	C638.604858,119.055923 631.100830,117.719292 624.022339,114.901947 
	C613.888855,110.868690 604.034790,106.134232 594.051758,101.721008 
	C593.315063,101.395355 592.483826,101.290489 591.725220,101.006325 
	C587.783325,99.529716 583.178589,98.853973 580.080444,96.332031 
	C575.957703,92.976013 571.837585,91.408386 566.440125,91.522461 
	C573.218140,89.957962 580.330383,88.774117 587.373474,87.267296 
	C608.066101,82.840233 628.731384,78.285072 649.407166,73.779373 
	C650.662354,73.505829 651.916321,73.226189 654.171570,72.728615 
	C653.720093,77.563293 653.639832,81.806839 652.877075,85.923927 
	C650.986755,96.126694 648.784424,106.271652 646.493652,116.709595 
z"/>
<path fill="#9EBD62" opacity="1.000000" stroke="none" 
	d="
M493.935425,107.544159 
	C503.129181,111.023811 512.506958,113.514847 520.694275,118.121689 
	C535.658142,126.541557 551.441162,132.310013 567.940613,136.589722 
	C571.062927,137.399597 573.775757,139.669128 576.830688,140.878067 
	C588.785339,145.608932 600.784668,150.228775 612.801636,154.799667 
	C618.947754,157.137451 625.166504,159.284271 631.654297,161.746399 
	C630.437561,165.107452 628.918945,168.239517 627.227783,171.686096 
	C619.755005,170.056046 612.271912,168.613205 605.202148,166.036179 
	C596.906677,163.012405 589.011841,158.904922 580.858704,155.468140 
	C577.535645,154.067383 574.053101,152.587158 570.531433,152.222916 
	C565.235474,151.675186 565.452393,149.288651 567.426331,145.703186 
	C567.100525,145.498138 566.765625,145.125336 566.570923,145.188034 
	C556.248474,148.512436 547.493652,143.879242 538.394165,140.070633 
	C524.853210,134.403000 511.099091,129.238205 497.378296,124.009941 
	C492.005707,121.962730 486.420624,120.471519 481.056763,118.404129 
	C479.488068,117.799500 478.348083,116.082634 477.004883,114.497406 
	C482.526337,111.916046 488.054474,109.712845 493.935425,107.544159 
z"/>
<path fill="#8CAE5D" opacity="1.000000" stroke="none" 
	d="
M556.846191,149.946198 
	C559.378601,150.419952 559.123291,151.529007 557.395386,152.750137 
	C554.445923,154.834503 551.426270,156.819519 547.738708,159.318939 
	C549.400635,160.386505 550.690063,161.570282 552.209412,162.131439 
	C560.441223,165.171829 568.940674,167.581207 576.946411,171.116943 
	C587.255310,175.669800 597.159119,181.134125 607.294617,186.088989 
	C609.796143,187.311920 612.574036,187.962387 615.108032,189.129837 
	C615.944946,189.515411 616.414185,190.698898 617.115234,191.933258 
	C617.178894,192.348984 617.170959,192.708054 616.704285,192.922302 
	C615.910278,193.965103 615.582886,194.793671 615.255493,195.622223 
	C612.131592,200.806503 609.007629,205.990784 605.461060,210.902649 
	C603.654480,209.754410 602.367798,208.604843 600.862610,208.070374 
	C598.869812,207.362778 596.455811,207.599304 594.657043,206.626923 
	C584.014587,200.873703 573.515686,194.855515 562.926086,189.003250 
	C560.318665,187.562302 557.537170,186.439713 554.863831,185.113922 
	C547.418396,181.421478 539.959290,177.753891 532.591553,173.911530 
	C531.775757,173.486069 531.515442,171.995422 531.147583,170.695831 
	C533.101501,168.968735 535.003113,167.650650 536.688965,166.098358 
	C540.167114,162.895859 546.029785,161.742157 546.297607,155.252747 
	C550.024475,153.346802 553.435303,151.646500 556.846191,149.946198 
z"/>
<path fill="#385C35" opacity="1.000000" stroke="none" 
	d="
M538.501709,588.001465 
	C538.502380,581.858582 538.502380,576.215210 538.502380,570.271484 
	C543.669800,570.271484 548.407104,570.271484 554.022583,570.271484 
	C554.022583,574.179871 554.022583,578.154358 554.022583,582.949341 
	C567.000183,570.086121 571.265808,567.953735 581.556885,569.117737 
	C581.556885,573.131104 582.137573,577.359985 581.272217,581.268799 
	C580.924011,582.841553 577.526306,584.388000 575.307617,584.787964 
	C564.199829,586.790405 556.058044,595.079712 554.994263,606.242737 
	C554.568665,610.709534 554.372803,615.211548 554.340759,619.699463 
	C554.283691,627.691895 554.316833,635.689026 554.547607,643.677429 
	C554.642334,646.953064 553.485046,648.191345 550.227722,648.020752 
	C546.592590,647.830383 542.939758,647.977051 538.501099,647.977051 
	C538.501099,627.988953 538.501099,608.244934 538.501709,588.001465 
z"/>
<path fill="#618C53" opacity="1.000000" stroke="none" 
	d="
M562.178711,256.488281 
	C555.683044,260.589966 549.187378,264.691650 542.330811,268.451599 
	C541.611084,267.414490 541.433411,266.376709 540.865723,266.076477 
	C534.927917,262.936401 529.003540,259.753235 522.929443,256.892181 
	C508.625458,250.154831 494.218048,243.637192 479.906433,236.915771 
	C476.170197,235.161041 472.631744,232.985107 469.139252,230.690018 
	C472.183624,226.577698 475.015442,222.716446 478.031158,219.004578 
	C479.506989,217.188019 481.324799,215.649292 483.149017,214.304230 
	C484.680176,215.431488 485.984161,216.392548 487.433319,217.016312 
	C490.750824,218.444275 494.360474,219.323120 497.458954,221.106873 
	C508.462646,227.441574 519.034363,234.577377 530.285034,240.416870 
	C539.895203,245.404892 550.237366,248.974304 560.179565,253.344498 
	C561.124084,253.759689 561.525269,255.410934 562.178711,256.488281 
z"/>
<path fill="#6A9454" opacity="1.000000" stroke="none" 
	d="
M562.524353,256.398315 
	C561.525269,255.410934 561.124084,253.759689 560.179565,253.344498 
	C550.237366,248.974304 539.895203,245.404892 530.285034,240.416870 
	C519.034363,234.577377 508.462646,227.441574 497.458954,221.106873 
	C494.360474,219.323120 490.750824,218.444275 487.433319,217.016312 
	C485.984161,216.392548 484.680176,215.431488 483.156464,213.976364 
	C483.016144,212.891693 483.029602,212.454285 483.385559,211.975525 
	C488.152374,207.623215 492.576660,203.312225 497.006531,199.377045 
	C497.951172,200.966171 498.640198,202.609131 499.869110,203.324203 
	C508.997284,208.635666 518.124329,213.967743 527.458374,218.902496 
	C543.652527,227.464111 559.995605,235.744095 576.276184,244.142181 
	C571.807434,248.197571 567.338745,252.252945 562.524353,256.398315 
z"/>
<path fill="#81A65A" opacity="1.000000" stroke="none" 
	d="
M530.997559,170.998779 
	C531.515442,171.995422 531.775757,173.486069 532.591553,173.911530 
	C539.959290,177.753891 547.418396,181.421478 554.863831,185.113922 
	C557.537170,186.439713 560.318665,187.562302 562.926086,189.003250 
	C573.515686,194.855515 584.014587,200.873703 594.657043,206.626923 
	C596.455811,207.599304 598.869812,207.362778 600.862610,208.070374 
	C602.367798,208.604843 603.654480,209.754410 605.143433,211.047791 
	C601.442871,216.725113 597.637451,221.984818 593.476074,226.960876 
	C593.321350,225.298935 593.522583,223.920670 593.742249,222.416580 
	C590.606689,221.702805 587.578369,221.660431 585.228210,220.376663 
	C565.419312,209.556137 543.996094,201.822388 525.218079,189.054901 
	C522.021606,186.881531 519.063538,184.357376 516.145325,181.699615 
	C518.203857,179.605942 520.112488,177.807907 522.376221,175.970947 
	C525.486755,174.287598 528.242188,172.643188 530.997559,170.998779 
z"/>
<path fill="#9ACBE3" opacity="1.000000" stroke="none" 
	d="
M244.719238,210.358841 
	C249.362946,209.870178 253.191620,211.117905 257.450928,213.129349 
	C262.702972,215.609589 269.317047,215.310333 275.369324,215.964249 
	C282.576538,216.742950 289.812164,217.258453 297.423523,217.952393 
	C297.858002,227.041031 297.904419,236.065277 297.493958,245.491180 
	C279.476501,243.941040 261.915955,241.989258 244.355408,240.037460 
	C244.429672,230.274872 244.503937,220.512268 244.719238,210.358841 
z"/>
<path fill="#588551" opacity="1.000000" stroke="none" 
	d="
M469.002441,231.002609 
	C472.631744,232.985107 476.170197,235.161041 479.906433,236.915771 
	C494.218048,243.637192 508.625458,250.154831 522.929443,256.892181 
	C529.003540,259.753235 534.927917,262.936401 540.865723,266.076477 
	C541.433411,266.376709 541.611084,267.414490 541.980835,268.471802 
	C536.239319,271.509705 530.486938,274.185699 524.431152,276.512451 
	C525.031067,275.373871 525.934326,274.584534 527.241516,273.442169 
	C525.854126,272.860565 525.021667,272.254852 524.149597,272.191010 
	C520.599365,271.931091 516.771179,272.625671 513.529663,271.532532 
	C504.246918,268.402130 494.703613,265.458923 486.229156,260.715546 
	C480.214691,257.349091 472.573608,258.056427 467.616241,252.055344 
	C465.487610,249.478516 461.263916,248.632370 458.000549,246.630722 
	C458.548126,245.131348 458.985535,243.937592 459.645111,242.882767 
	C461.721283,239.562332 463.880951,236.294067 466.282501,232.878479 
	C467.371948,232.168442 468.187195,231.585526 469.002441,231.002609 
z"/>
<path fill="#8FC2DE" opacity="1.000000" stroke="none" 
	d="
M244.256668,240.494843 
	C261.915955,241.989258 279.476501,243.941040 297.414062,245.954681 
	C297.866241,252.703812 297.941376,259.391113 297.717560,266.780518 
	C297.268402,268.660187 297.118134,269.837738 296.539917,271.010590 
	C292.872192,271.084839 289.574310,271.594055 286.403107,271.165558 
	C274.920166,269.613983 263.507996,267.506531 252.004456,266.161560 
	C248.950043,265.804474 246.424179,265.455902 244.439026,263.073334 
	C244.345322,255.699631 244.251633,248.325912 244.256668,240.494843 
z"/>
<path fill="#80A55C" opacity="1.000000" stroke="none" 
	d="
M416.985168,167.997467 
	C420.703186,162.346939 424.343781,156.643127 428.178253,151.072754 
	C429.657410,148.923950 431.576813,147.078232 433.642883,145.370071 
	C435.108978,146.840897 436.005157,148.539230 437.383118,149.149155 
	C445.990814,152.959167 454.471375,157.322769 463.446564,159.967316 
	C474.138245,163.117630 485.278900,164.753464 496.238525,166.978882 
	C498.979675,167.535477 501.772614,167.836914 504.541748,168.255630 
	C497.283478,172.502411 490.025177,176.749191 482.329834,180.705139 
	C480.774261,179.943497 479.617126,178.989716 478.543152,179.075607 
	C465.901031,180.086792 454.128693,175.929703 442.102997,173.208008 
	C433.764404,171.320801 425.360107,169.724014 416.985168,167.997467 
z"/>
<path fill="#82B9DB" opacity="1.000000" stroke="none" 
	d="
M244.320389,263.522705 
	C246.424179,265.455902 248.950043,265.804474 252.004456,266.161560 
	C263.507996,267.506531 274.920166,269.613983 286.403107,271.165558 
	C289.574310,271.594055 292.872192,271.084839 296.548401,271.477478 
	C296.981293,279.301758 296.977783,286.654449 296.522125,294.004822 
	C292.800354,294.317505 289.507477,295.035583 286.266754,294.848969 
	C281.872620,294.595978 277.534851,293.281891 273.143280,293.085175 
	C266.120422,292.770599 259.064819,292.799316 252.039978,293.090759 
	C248.862274,293.222656 246.420761,292.548767 244.493912,290.061890 
	C244.396530,281.365265 244.299133,272.668671 244.320389,263.522705 
z"/>
<path fill="#8FB25F" opacity="1.000000" stroke="none" 
	d="
M457.478455,125.034866 
	C463.058685,126.516823 468.352203,127.987396 473.559143,129.718460 
	C480.396362,131.991501 487.136078,134.557739 493.971954,136.834991 
	C500.774414,139.101074 507.763824,140.851685 514.451660,143.403778 
	C521.626587,146.141769 528.551270,149.537979 535.556335,152.710434 
	C535.838623,152.838287 535.825989,153.617416 535.952637,154.465698 
	C535.954468,154.838287 535.993347,154.939468 535.761780,155.051819 
	C535.301758,155.326233 535.133972,155.536713 535.026855,155.795578 
	C534.832153,155.828003 534.637451,155.860443 533.954102,155.601044 
	C532.642578,155.810135 531.819641,156.311081 530.996704,156.812012 
	C526.622803,158.643341 522.248962,160.474640 517.431274,161.933151 
	C515.925476,160.714127 514.985718,159.517670 513.775757,159.095016 
	C511.302765,158.231171 508.629730,157.950775 506.135437,157.135406 
	C495.161163,153.548035 484.260529,149.731628 473.255920,146.241974 
	C464.951263,143.608475 456.527222,141.351974 448.161377,138.910400 
	C446.116913,138.313721 444.092255,137.649261 442.058472,137.015961 
	C447.090057,133.057083 452.121643,129.098236 457.478455,125.034866 
z"/>
<path fill="#729A56" opacity="1.000000" stroke="none" 
	d="
M576.630676,244.177399 
	C559.995605,235.744095 543.652527,227.464111 527.458374,218.902496 
	C518.124329,213.967743 508.997284,208.635666 499.869110,203.324203 
	C498.640198,202.609131 497.951172,200.966171 497.152344,199.076141 
	C499.527924,196.265869 501.763367,194.132309 504.274353,191.873566 
	C505.366608,191.165802 506.183319,190.583206 507.036499,190.359726 
	C508.979675,192.604599 510.679596,194.784760 512.843445,196.304199 
	C515.785400,198.370026 519.094666,199.908630 522.223694,201.712875 
	C528.778564,205.492599 535.168518,209.592850 541.900818,213.022461 
	C551.450867,217.887527 561.246277,222.271255 570.941406,226.851166 
	C575.567688,229.036621 580.204407,231.200165 585.420898,233.647919 
	C585.405884,233.778748 585.261414,235.040436 585.116882,236.302124 
	C582.406311,238.938965 579.695740,241.575790 576.630676,244.177399 
z"/>
<path fill="#51804F" opacity="1.000000" stroke="none" 
	d="
M457.992065,246.999908 
	C461.263916,248.632370 465.487610,249.478516 467.616241,252.055344 
	C472.573608,258.056427 480.214691,257.349091 486.229156,260.715546 
	C494.703613,265.458923 504.246918,268.402130 513.529663,271.532532 
	C516.771179,272.625671 520.599365,271.931091 524.149597,272.191010 
	C525.021667,272.254852 525.854126,272.860565 527.241516,273.442169 
	C525.934326,274.584534 525.031067,275.373871 524.063782,276.491516 
	C518.632263,278.652191 513.264832,280.484558 507.303223,281.961487 
	C505.187958,281.334106 503.677032,280.957062 502.143951,280.807953 
	C494.603333,280.074585 486.629395,280.703583 479.613312,278.400116 
	C469.291077,275.011230 459.237122,270.320160 450.672150,263.184326 
	C449.954315,262.586243 448.905090,262.385925 448.011993,261.753723 
	C448.014160,261.506683 448.021301,261.012604 448.291260,260.811951 
	C451.704834,256.074188 454.848450,251.537033 457.992065,246.999908 
z"/>
<path fill="#79A058" opacity="1.000000" stroke="none" 
	d="
M585.457642,236.198776 
	C585.261414,235.040436 585.405884,233.778748 585.420898,233.647919 
	C580.204407,231.200165 575.567688,229.036621 570.941406,226.851166 
	C561.246277,222.271255 551.450867,217.887527 541.900818,213.022461 
	C535.168518,209.592850 528.778564,205.492599 522.223694,201.712875 
	C519.094666,199.908630 515.785400,198.370026 512.843445,196.304199 
	C510.679596,194.784760 508.979675,192.604599 507.187561,190.060425 
	C510.199829,186.933090 513.097595,184.464188 515.995361,181.995285 
	C519.063538,184.357376 522.021606,186.881531 525.218079,189.054901 
	C543.996094,201.822388 565.419312,209.556137 585.228210,220.376663 
	C587.578369,221.660431 590.606689,221.702805 593.742249,222.416580 
	C593.522583,223.920670 593.321350,225.298935 593.150452,227.095673 
	C590.720032,230.374588 588.259216,233.235001 585.457642,236.198776 
z"/>
<path fill="#87AC5D" opacity="1.000000" stroke="none" 
	d="
M441.742249,137.133102 
	C444.092255,137.649261 446.116913,138.313721 448.161377,138.910400 
	C456.527222,141.351974 464.951263,143.608475 473.255920,146.241974 
	C484.260529,149.731628 495.161163,153.548035 506.135437,157.135406 
	C508.629730,157.950775 511.302765,158.231171 513.775757,159.095016 
	C514.985718,159.517670 515.925476,160.714127 517.057251,161.972961 
	C513.156616,164.347534 509.186279,166.309479 504.878845,168.263519 
	C501.772614,167.836914 498.979675,167.535477 496.238525,166.978882 
	C485.278900,164.753464 474.138245,163.117630 463.446564,159.967316 
	C454.471375,157.322769 445.990814,152.959167 437.383118,149.149155 
	C436.005157,148.539230 435.108978,146.840897 433.972443,145.254730 
	C436.445190,142.325912 438.935638,139.788086 441.742249,137.133102 
z"/>
<path fill="#74AED6" opacity="1.000000" stroke="none" 
	d="
M297.032593,335.911865 
	C293.607788,335.563232 289.574280,336.239716 286.889191,334.645325 
	C281.824219,331.637787 276.500397,331.136078 271.002991,330.468292 
	C262.418457,329.425446 253.859024,328.175812 244.900543,327.025879 
	C244.430588,317.683197 244.349030,308.328461 244.729980,298.653015 
	C245.461731,299.900848 246.096786,301.508881 245.932419,303.030579 
	C245.416534,307.806488 247.775299,309.202423 252.066391,309.039734 
	C254.862640,308.933746 257.773560,308.778595 260.460663,309.396027 
	C272.496582,312.161560 284.570953,314.200928 296.997986,313.469543 
	C297.018555,321.262543 297.025574,328.587219 297.032593,335.911865 
z"/>
<path fill="#759D57" opacity="1.000000" stroke="none" 
	d="
M416.822266,168.232239 
	C425.360107,169.724014 433.764404,171.320801 442.102997,173.208008 
	C454.128693,175.929703 465.901031,180.086792 478.543152,179.075607 
	C479.617126,178.989716 480.774261,179.943497 481.995056,180.830505 
	C476.823364,184.849335 471.549408,188.451965 465.523987,192.085205 
	C460.851196,192.077194 456.916077,191.808136 453.010864,192.040848 
	C437.987488,192.936142 424.793152,186.343338 411.167908,181.686615 
	C411.480072,180.448990 411.666199,179.541809 411.852325,178.634628 
	C412.202637,177.612595 412.552948,176.590561 413.430634,175.230972 
	C414.584656,173.457932 415.211334,172.022430 415.837982,170.586929 
	C416.111786,169.880295 416.385559,169.173645 416.822266,168.232239 
z"/>
<path fill="#6D9555" opacity="1.000000" stroke="none" 
	d="
M411.041840,182.017090 
	C424.793152,186.343338 437.987488,192.936142 453.010864,192.040848 
	C456.916077,191.808136 460.851196,192.077194 465.203125,192.130524 
	C459.423889,197.004242 453.214081,201.863251 446.433197,206.978256 
	C445.587097,207.539276 445.312042,207.844284 445.037018,208.149292 
	C445.037018,208.149292 445.069489,208.046112 444.779968,208.070419 
	C443.661957,208.403595 442.833405,208.712479 441.544250,209.014984 
	C432.536957,207.583160 423.761780,206.932831 415.511627,204.501205 
	C408.143738,202.329651 406.455719,201.800018 402.400452,207.002396 
	C404.687714,199.144653 406.974976,191.286911 409.781860,183.114822 
	C410.548279,182.539337 410.795074,182.278214 411.041840,182.017090 
z"/>
<path fill="#79B2D8" opacity="1.000000" stroke="none" 
	d="
M296.984375,313.001221 
	C284.570953,314.200928 272.496582,312.161560 260.460663,309.396027 
	C257.773560,308.778595 254.862640,308.933746 252.066391,309.039734 
	C247.775299,309.202423 245.416534,307.806488 245.932419,303.030579 
	C246.096786,301.508881 245.461731,299.900848 244.864258,298.209930 
	C244.432693,295.695892 244.329346,293.304230 244.359955,290.487244 
	C246.420761,292.548767 248.862274,293.222656 252.039978,293.090759 
	C259.064819,292.799316 266.120422,292.770599 273.143280,293.085175 
	C277.534851,293.281891 281.872620,294.595978 286.266754,294.848969 
	C289.507477,295.035583 292.800354,294.317505 296.533325,294.472229 
	C296.992554,300.961700 296.988464,306.981445 296.984375,313.001221 
z"/>
<path fill="#4C7A4F" opacity="1.000000" stroke="none" 
	d="
M448.009827,262.000793 
	C448.905090,262.385925 449.954315,262.586243 450.672150,263.184326 
	C459.237122,270.320160 469.291077,275.011230 479.613312,278.400116 
	C486.629395,280.703583 494.603333,280.074585 502.143951,280.807953 
	C503.677032,280.957062 505.187958,281.334106 506.910095,281.920563 
	C505.317230,282.852356 503.523376,283.469635 501.213257,283.815216 
	C500.129639,283.919006 499.562286,284.294464 498.994934,284.669922 
	C497.939728,284.843781 496.884491,285.017639 495.165833,285.057129 
	C493.832092,284.991211 493.161743,285.059692 492.491394,285.128174 
	C492.070282,285.485077 491.649200,285.842010 490.366516,286.122192 
	C487.331055,286.578186 485.157166,287.110931 482.983246,287.643646 
	C482.527588,287.738770 482.071930,287.833893 481.033020,287.640625 
	C478.960724,287.779846 477.471649,288.207458 475.982605,288.635071 
	C462.950653,288.733704 449.918701,288.832367 436.484375,288.456848 
	C440.057922,279.322021 444.033875,270.661407 448.009827,262.000793 
z"/>
<path fill="#3F673F" opacity="1.000000" stroke="none" 
	d="
M448.011993,261.753723 
	C444.033875,270.661407 440.057922,279.322021 436.028381,288.334656 
	C428.458374,287.803955 420.941925,286.921204 412.082214,285.880737 
	C416.885864,277.408661 421.146515,269.894226 426.037109,262.136597 
	C427.395386,260.463257 428.123688,259.033020 428.851990,257.602814 
	C428.851990,257.602814 428.809265,257.244232 429.358063,257.136597 
	C433.629242,257.289459 437.493561,258.288483 441.035095,257.607910 
	C444.763519,256.891418 446.646149,257.904510 448.021301,261.012604 
	C448.021301,261.012604 448.014160,261.506683 448.011993,261.753723 
z"/>
<path fill="#5F8853" opacity="1.000000" stroke="none" 
	d="
M434.108246,218.003662 
	C430.720734,221.588181 427.160339,225.026505 423.980377,228.786545 
	C416.551361,237.570648 409.306000,246.510056 401.982788,255.383698 
	C401.383881,256.109375 400.758667,256.813324 399.060150,258.791931 
	C397.603088,244.662567 397.831329,231.998444 400.644379,219.132721 
	C409.277893,220.681213 417.043274,224.315109 425.427063,221.925507 
	C428.447968,221.064484 431.221710,219.336182 434.108246,218.003662 
z"/>
<path fill="#477143" opacity="1.000000" stroke="none" 
	d="
M448.291260,260.811951 
	C446.646149,257.904510 444.763519,256.891418 441.035095,257.607910 
	C437.493561,258.288483 433.629242,257.289459 429.492859,257.016479 
	C437.189972,246.438278 445.301056,235.872574 453.888824,225.413910 
	C456.221008,226.393295 458.204742,227.070938 459.899902,228.186859 
	C462.058167,229.607590 463.982880,231.383057 466.008270,233.005600 
	C463.880951,236.294067 461.721283,239.562332 459.645111,242.882767 
	C458.985535,243.937592 458.548126,245.131348 458.000549,246.630707 
	C454.848450,251.537033 451.704834,256.074188 448.291260,260.811951 
z"/>
<path fill="#618C53" opacity="1.000000" stroke="none" 
	d="
M434.390167,217.843536 
	C431.221710,219.336182 428.447968,221.064484 425.427063,221.925507 
	C417.043274,224.315109 409.277893,220.681213 400.896118,218.882080 
	C400.658081,216.836609 400.855591,214.838196 401.472290,212.364075 
	C401.948700,210.933609 402.005920,209.978806 402.063141,209.024017 
	C402.077179,208.562286 402.091248,208.100555 402.252869,207.320618 
	C406.455719,201.800018 408.143738,202.329651 415.511627,204.501205 
	C423.761780,206.932831 432.536957,207.583160 441.543091,209.335098 
	C441.995880,210.088898 441.989227,210.516205 441.982544,210.943512 
	C441.798279,211.254944 441.614014,211.566376 440.874908,211.966873 
	C439.883972,212.569046 439.447845,213.082123 439.011719,213.595215 
	C437.565155,214.957947 436.118622,216.320679 434.390167,217.843536 
z"/>
<path fill="#527B47" opacity="1.000000" stroke="none" 
	d="
M466.282501,232.878479 
	C463.982880,231.383057 462.058167,229.607590 459.899902,228.186859 
	C458.204742,227.070938 456.221008,226.393295 454.165710,225.220795 
	C458.357544,220.326630 462.749115,215.732651 467.819580,211.033188 
	C469.316956,209.914902 470.135437,208.902100 470.953888,207.889282 
	C471.301239,207.525696 471.648621,207.162125 472.632416,206.954773 
	C475.061981,207.739151 476.936554,208.203491 478.624451,209.043137 
	C480.200439,209.827118 481.578094,211.009705 483.043030,212.016846 
	C483.029602,212.454285 483.016144,212.891693 482.995239,213.656982 
	C481.324799,215.649292 479.506989,217.188019 478.031158,219.004578 
	C475.015442,222.716446 472.183624,226.577698 469.139252,230.690018 
	C468.187195,231.585526 467.371948,232.168442 466.282501,232.878479 
z"/>
<path fill="#5F8853" opacity="1.000000" stroke="none" 
	d="
M483.385559,211.975525 
	C481.578094,211.009705 480.200439,209.827118 478.624451,209.043137 
	C476.936554,208.203491 475.061981,207.739151 472.896423,206.929291 
	C477.902344,201.910568 483.211639,196.993515 488.688995,192.271347 
	C491.308533,190.012970 494.246643,188.124115 497.753815,186.014389 
	C500.311035,187.973495 502.154907,189.986130 503.998779,191.998749 
	C501.763367,194.132309 499.527924,196.265869 497.146729,198.700333 
	C492.576660,203.312225 488.152374,207.623215 483.385559,211.975525 
z"/>
<path fill="#6A9454" opacity="1.000000" stroke="none" 
	d="
M504.274353,191.873566 
	C502.154907,189.986130 500.311035,187.973495 498.075653,185.919266 
	C503.154999,181.953476 508.625885,178.029297 514.738525,174.015289 
	C515.927185,173.415604 516.473999,172.905716 517.020874,172.395828 
	C517.020874,172.395828 517.266113,172.030304 517.748413,171.920319 
	C518.492126,171.562576 518.753662,171.314819 519.015137,171.067062 
	C519.486267,170.740829 519.957336,170.414597 520.757324,170.448013 
	C521.397827,172.541733 521.709412,174.275818 522.021057,176.009888 
	C520.112488,177.807907 518.203857,179.605942 516.145325,181.699615 
	C513.097595,184.464188 510.199829,186.933090 507.151031,189.701294 
	C506.183319,190.583206 505.366608,191.165802 504.274353,191.873566 
z"/>
<path fill="#79A058" opacity="1.000000" stroke="none" 
	d="
M522.376221,175.970947 
	C521.709412,174.275818 521.397827,172.541733 521.048584,170.431610 
	C526.015137,166.783920 530.990845,163.467575 536.034790,160.258591 
	C538.760132,158.524689 541.602295,156.974213 544.929810,155.308350 
	C545.639160,155.336609 545.810425,155.397491 545.981628,155.458389 
	C546.029785,161.742157 540.167114,162.895859 536.688965,166.098358 
	C535.003113,167.650650 533.101501,168.968735 531.147583,170.695831 
	C528.242188,172.643188 525.486755,174.287598 522.376221,175.970947 
z"/>
<path fill="#A5D4E6" opacity="1.000000" stroke="none" 
	d="
M296.997986,313.469543 
	C296.988464,306.981445 296.992554,300.961700 296.985474,294.474518 
	C296.977783,286.654449 296.981293,279.301758 296.976379,271.482208 
	C297.118134,269.837738 297.268402,268.660187 297.684753,267.249084 
	C298.263306,268.584808 298.843231,270.153320 298.847748,271.723480 
	C298.908661,292.880371 298.889465,314.037506 298.821472,335.673218 
	C298.370483,336.101196 297.988129,336.050507 297.319153,335.955872 
	C297.025574,328.587219 297.018555,321.262543 296.997986,313.469543 
z"/>
<path fill="#F7F9F7" opacity="1.000000" stroke="none" 
	d="
M546.297607,155.252747 
	C545.810425,155.397491 545.639160,155.336609 545.233948,155.135712 
	C543.751099,154.628555 542.502136,154.261383 540.875366,153.856033 
	C545.495239,150.551361 550.608887,147.710922 556.892944,149.644836 
	C553.435303,151.646500 550.024475,153.346802 546.297607,155.252747 
z"/>
<path fill="#6D9555" opacity="1.000000" stroke="none" 
	d="
M483.381348,287.737671 
	C485.157166,287.110931 487.331055,286.578186 489.942505,286.131287 
	C488.179871,286.755341 485.979645,287.293518 483.381348,287.737671 
z"/>
<path fill="#6D9555" opacity="1.000000" stroke="none" 
	d="
M476.345215,288.713074 
	C477.471649,288.207458 478.960724,287.779846 480.685120,287.591736 
	C479.516296,288.151184 478.112061,288.471100 476.345215,288.713074 
z"/>
<path fill="#80A55C" opacity="1.000000" stroke="none" 
	d="
M415.532928,170.735809 
	C415.211334,172.022430 414.584656,173.457932 413.604492,174.952698 
	C413.909943,173.636215 414.568909,172.260437 415.532928,170.735809 
z"/>
<path fill="#AEC867" opacity="1.000000" stroke="none" 
	d="
M508.651489,102.294968 
	C507.402252,103.189934 505.800262,104.028015 503.800171,104.818626 
	C505.034271,103.926804 506.666504,103.082443 508.651489,102.294968 
z"/>
<path fill="#477143" opacity="1.000000" stroke="none" 
	d="
M428.554016,257.767395 
	C428.123688,259.033020 427.395386,260.463257 426.307007,261.935883 
	C426.716675,260.629547 427.486359,259.280762 428.554016,257.767395 
z"/>
<path fill="#5F8853" opacity="1.000000" stroke="none" 
	d="
M470.636047,207.961487 
	C470.135437,208.902100 469.316956,209.914902 468.132141,210.914322 
	C468.616638,209.945175 469.467407,208.989426 470.636047,207.961487 
z"/>
<path fill="#5F8853" opacity="1.000000" stroke="none" 
	d="
M442.292053,210.866074 
	C441.989227,210.516205 441.995880,210.088898 442.003723,209.341476 
	C442.833405,208.712479 443.661957,208.403595 444.827362,208.096466 
	C444.310028,208.995026 443.455780,209.891830 442.292053,210.866074 
z"/>
<path fill="#6D9555" opacity="1.000000" stroke="none" 
	d="
M401.828125,209.247482 
	C402.005920,209.978806 401.948700,210.933609 401.591766,211.949280 
	C401.392426,211.163757 401.492767,210.317352 401.828125,209.247482 
z"/>
<path fill="#BACF6D" opacity="1.000000" stroke="none" 
	d="
M563.706543,91.436028 
	C563.144165,91.904678 562.273071,92.231407 561.222473,92.329758 
	C561.827942,91.832291 562.612915,91.563202 563.706543,91.436028 
z"/>
<path fill="#6D9555" opacity="1.000000" stroke="none" 
	d="
M492.432068,285.404785 
	C493.161743,285.059692 493.832092,284.991211 494.768463,284.981506 
	C494.147247,285.253967 493.259979,285.467682 492.432068,285.404785 
z"/>
<path fill="#BACF6D" opacity="1.000000" stroke="none" 
	d="
M545.677124,94.192688 
	C545.160095,94.715660 544.311401,95.163910 543.267944,95.388092 
	C543.830566,94.815346 544.588074,94.466660 545.677124,94.192688 
z"/>
<path fill="#80A55C" opacity="1.000000" stroke="none" 
	d="
M411.167908,181.686630 
	C410.795074,182.278214 410.548279,182.539337 410.032654,182.855225 
	C410.254425,181.605804 410.745026,180.301620 411.543976,178.816025 
	C411.666199,179.541809 411.480072,180.448990 411.167908,181.686630 
z"/>
<path fill="#97B761" opacity="1.000000" stroke="none" 
	d="
M531.336182,156.860413 
	C531.819641,156.311081 532.642578,155.810135 533.670288,155.516678 
	C533.141907,156.119034 532.408752,156.513916 531.336182,156.860413 
z"/>
<path fill="#BACF6D" opacity="1.000000" stroke="none" 
	d="
M539.704834,95.424934 
	C539.144470,95.896126 538.275879,96.227242 537.227661,96.330528 
	C537.830872,95.830086 538.613708,95.557472 539.704834,95.424934 
z"/>
<path fill="#51804F" opacity="1.000000" stroke="none" 
	d="
M499.276428,284.702759 
	C499.562286,284.294464 500.129639,283.919006 500.845032,283.765533 
	C500.514709,284.236908 500.036346,284.486267 499.276428,284.702759 
z"/>
<path fill="#5F8853" opacity="1.000000" stroke="none" 
	d="
M439.286469,213.614227 
	C439.447845,213.082123 439.883972,212.569046 440.593506,212.008820 
	C440.431671,212.518860 439.996460,213.076065 439.286469,213.614227 
z"/>
<path fill="#97B761" opacity="1.000000" stroke="none" 
	d="
M615.550171,195.459167 
	C615.582886,194.793671 615.910278,193.965103 616.599731,193.068268 
	C616.589478,193.765350 616.217102,194.530716 615.550171,195.459167 
z"/>
<path fill="#79A058" opacity="1.000000" stroke="none" 
	d="
M516.721436,172.360596 
	C516.473999,172.905716 515.927185,173.415604 515.064453,173.909302 
	C515.306396,173.370544 515.864197,172.847946 516.721436,172.360596 
z"/>
<path fill="#BACF6D" opacity="1.000000" stroke="none" 
	d="
M550.764465,93.583870 
	C550.435486,93.969772 549.858521,94.207474 549.148193,94.239395 
	C549.515442,93.834312 550.015930,93.634987 550.764465,93.583870 
z"/>
<path fill="#5F8853" opacity="1.000000" stroke="none" 
	d="
M445.347748,208.088791 
	C445.312042,207.844284 445.587097,207.539276 446.171906,207.160629 
	C446.207306,207.400757 445.932892,207.714523 445.347748,208.088791 
z"/>
<path fill="#79A058" opacity="1.000000" stroke="none" 
	d="
M518.729126,171.083374 
	C518.753662,171.314819 518.492126,171.562576 517.956299,171.848175 
	C517.935669,171.623901 518.189392,171.361801 518.729126,171.083374 
z"/>
<path fill="#97B761" opacity="1.000000" stroke="none" 
	d="
M535.267334,155.795929 
	C535.133972,155.536713 535.301758,155.326233 535.710083,155.068146 
	C535.953613,155.335464 535.826233,155.610184 535.267334,155.795929 
z"/>
<path fill="#FAFBFA" opacity="1.000000" stroke="none" 
	d="
M623.014954,592.140747 
	C631.911926,581.508118 644.841064,579.200256 656.333984,585.959656 
	C666.035339,591.665405 670.996582,606.571716 667.034912,618.111328 
	C662.810364,630.416687 652.617188,637.308777 640.845398,635.819214 
	C627.528137,634.134155 619.218018,625.150269 618.328552,611.471191 
	C617.886536,604.672729 618.925354,598.217529 623.014954,592.140747 
z"/>
<path fill="#FCFCFC" opacity="1.000000" stroke="none" 
	d="
M162.862854,586.827515 
	C172.218719,578.510193 188.538315,578.708557 195.987259,585.449036 
	C199.648605,588.762146 203.249390,593.185364 204.632034,597.781738 
	C209.132828,612.743958 205.887131,629.160522 192.356216,635.527710 
	C176.379379,643.045959 156.963943,632.401733 154.756485,614.864197 
	C153.444687,604.442444 155.355118,595.033325 162.862854,586.827515 
z"/>
<path fill="#F7F9F7" opacity="1.000000" stroke="none" 
	d="
M464.466858,614.099854 
	C471.247162,613.503784 477.635864,612.903198 484.038116,612.544678 
	C487.810669,612.333435 491.604706,612.506042 495.240112,612.506042 
	C497.405792,621.396301 494.606445,629.960876 488.622894,633.769836 
	C480.737305,638.789612 468.193115,638.840698 462.209869,633.926086 
	C456.377289,629.135254 455.884888,618.863831 464.466858,614.099854 
z"/>
<path fill="#FAFBFA" opacity="1.000000" stroke="none" 
	d="
M769.834229,609.911865 
	C768.115967,634.799011 743.840393,642.179321 728.247192,630.998962 
	C719.796875,624.940063 715.945984,612.416443 719.342773,600.491028 
	C722.297729,590.116943 731.899719,582.389160 742.223999,582.076111 
	C754.143738,581.714600 763.966003,588.006165 767.701965,598.808838 
	C768.877319,602.207520 769.150879,605.918091 769.834229,609.911865 
z"/>
</svg>